<svg id="Layer_1" data-name="Layer 1" xmlns="http://www.w3.org/2000/svg" viewBox="0 0 255.95 56.87"><defs><style>.cls-1{fill:#49820d;}.cls-2{fill:#7bb50b;}.cls-3{fill:#2b5103;}.cls-3,.cls-4{opacity:0.77;}.cls-4{fill:#2e3564;}</style></defs><title>xento</title><path class="cls-1" d="M64.22,34.73,69,28l-4-6a11.39,11.39,0,0,1-.85-1.51,2.93,2.93,0,0,1-.29-1.21,1.4,1.4,0,0,1,.55-1.06,1.94,1.94,0,0,1,1.33-.48,1.91,1.91,0,0,1,1.41.52,12.75,12.75,0,0,1,1.39,1.92l3.2,5,3.42-5c.28-.43.53-.79.72-1.09a5.61,5.61,0,0,1,.58-.75,1.79,1.79,0,0,1,.62-.45,2,2,0,0,1,.79-.15,1.87,1.87,0,0,1,1.33.48,1.45,1.45,0,0,1,.52,1.12,5.13,5.13,0,0,1-1.12,2.58L74.37,28l4.53,6.78a11.47,11.47,0,0,1,.89,1.48,2.65,2.65,0,0,1,.27,1.11,1.73,1.73,0,0,1-.24.9,1.76,1.76,0,0,1-.7.65,2.13,2.13,0,0,1-1,.24,2,2,0,0,1-1-.24,2.18,2.18,0,0,1-.69-.62c-.17-.24-.5-.72-1-1.43l-3.76-5.74-4,5.91L67,38a3.44,3.44,0,0,1-.48.55,2.1,2.1,0,0,1-.65.43,2.4,2.4,0,0,1-.89.15,1.86,1.86,0,0,1-1.3-.46,1.73,1.73,0,0,1-.52-1.36A4.76,4.76,0,0,1,64.22,34.73Z" transform="translate(-2.35 -1.52)"/><path class="cls-1" d="M97.09,21.27H87.34v5.09h9a2.16,2.16,0,0,1,1.48.43,1.44,1.44,0,0,1,.49,1.14,1.5,1.5,0,0,1-.48,1.15,2.12,2.12,0,0,1-1.49.44h-9v5.9H97.42a2.3,2.3,0,0,1,1.54.46,1.58,1.58,0,0,1,.51,1.23A1.53,1.53,0,0,1,99,38.3a2.25,2.25,0,0,1-1.54.46H85.67a2.8,2.8,0,0,1-2-.61,2.66,2.66,0,0,1-.62-2V20.6a3.34,3.34,0,0,1,.28-1.48,1.66,1.66,0,0,1,.86-.83A3.69,3.69,0,0,1,85.67,18H97.09a2.29,2.29,0,0,1,1.53.44,1.63,1.63,0,0,1,0,2.35A2.24,2.24,0,0,1,97.09,21.27Z" transform="translate(-2.35 -1.52)"/><path class="cls-1" d="M108.54,20.19l8.32,12.22V20.08a2.64,2.64,0,0,1,.53-1.81,1.81,1.81,0,0,1,1.43-.6,1.88,1.88,0,0,1,1.47.6,2.65,2.65,0,0,1,.54,1.81v16.3c0,1.82-.77,2.73-2.33,2.73a3.17,3.17,0,0,1-1-.16,2.62,2.62,0,0,1-.87-.52,5.47,5.47,0,0,1-.76-.82l-.69-1L107,24.56V36.71a2.56,2.56,0,0,1-.57,1.8,1.93,1.93,0,0,1-1.46.6,1.88,1.88,0,0,1-1.47-.61,2.59,2.59,0,0,1-.55-1.79v-16a4.24,4.24,0,0,1,.23-1.59,2.2,2.2,0,0,1,.92-1,2.53,2.53,0,0,1,1.38-.41,2.35,2.35,0,0,1,1,.19,2.4,2.4,0,0,1,.73.49,6,6,0,0,1,.64.81Z" transform="translate(-2.35 -1.52)"/><path class="cls-1" d="M139.43,21.49h-4.72V36.55a2.71,2.71,0,0,1-.6,1.93,2,2,0,0,1-1.54.63,2.09,2.09,0,0,1-1.57-.63,2.74,2.74,0,0,1-.6-1.93V21.49h-4.72A2.43,2.43,0,0,1,124,21a1.6,1.6,0,0,1-.54-1.25,1.56,1.56,0,0,1,.56-1.28,2.46,2.46,0,0,1,1.62-.46h13.75a2.46,2.46,0,0,1,1.66.48,1.58,1.58,0,0,1,.55,1.26,1.61,1.61,0,0,1-.55,1.25A2.55,2.55,0,0,1,139.43,21.49Z" transform="translate(-2.35 -1.52)"/><path class="cls-1" d="M153.2,17.67A11.71,11.71,0,0,1,158.9,19a8.51,8.51,0,0,1,3.6,3.72,12.33,12.33,0,0,1,1.23,5.66,13.74,13.74,0,0,1-.67,4.38,9.44,9.44,0,0,1-2,3.4,8.77,8.77,0,0,1-3.29,2.21,13.42,13.42,0,0,1-9,0,8.84,8.84,0,0,1-3.3-2.21,9.34,9.34,0,0,1-2-3.44,13.29,13.29,0,0,1-.68-4.34,13.08,13.08,0,0,1,.7-4.39,9.34,9.34,0,0,1,2-3.39,8.7,8.7,0,0,1,3.26-2.14A12,12,0,0,1,153.2,17.67Zm6.14,10.67a9.57,9.57,0,0,0-.75-3.95,5.56,5.56,0,0,0-2.17-2.52A6.06,6.06,0,0,0,153.2,21a6.15,6.15,0,0,0-2.4.47,5.37,5.37,0,0,0-1.89,1.38,6.66,6.66,0,0,0-1.25,2.32,10,10,0,0,0-.46,3.16,10.24,10.24,0,0,0,.46,3.19A6.42,6.42,0,0,0,149,33.9a5.26,5.26,0,0,0,1.92,1.41,6.2,6.2,0,0,0,5.43-.34,5.64,5.64,0,0,0,2.21-2.49A9.34,9.34,0,0,0,159.34,28.34Z" transform="translate(-2.35 -1.52)"/><path class="cls-1" d="M193.07,32.21a5.28,5.28,0,0,1-.51,2.14A7.6,7.6,0,0,1,191,36.62a8,8,0,0,1-2.75,1.8,10.21,10.21,0,0,1-3.9.69,13.81,13.81,0,0,1-3.07-.31,8.41,8.41,0,0,1-2.51-1,8,8,0,0,1-2.08-1.73,10.56,10.56,0,0,1-1.44-2.18,11.26,11.26,0,0,1-.9-2.58,13.71,13.71,0,0,1-.29-2.92,12.35,12.35,0,0,1,.75-4.48,9.3,9.3,0,0,1,5.42-5.53,10.89,10.89,0,0,1,4-.74,10.26,10.26,0,0,1,4.62,1,8.26,8.26,0,0,1,3.1,2.48A4.8,4.8,0,0,1,193,24a1.82,1.82,0,0,1-.53,1.28,1.7,1.7,0,0,1-1.26.55A1.81,1.81,0,0,1,190,25.4a5.41,5.41,0,0,1-.92-1.32,6.47,6.47,0,0,0-2-2.31,5,5,0,0,0-2.82-.76A5.16,5.16,0,0,0,180,23a8.66,8.66,0,0,0-1.58,5.58,10,10,0,0,0,.7,4,5,5,0,0,0,2,2.39,5.56,5.56,0,0,0,3,.8,5.06,5.06,0,0,0,5.09-3.54,4.43,4.43,0,0,1,.69-1.34,1.56,1.56,0,0,1,1.31-.51,1.85,1.85,0,0,1,1.32.52A1.72,1.72,0,0,1,193.07,32.21Z" transform="translate(-2.35 -1.52)"/><path class="cls-1" d="M206.34,17.67A11.65,11.65,0,0,1,212,19a8.59,8.59,0,0,1,3.61,3.72,12.45,12.45,0,0,1,1.22,5.66,13.47,13.47,0,0,1-.67,4.38,9.44,9.44,0,0,1-2,3.4,8.69,8.69,0,0,1-3.29,2.21,13.39,13.39,0,0,1-9,0,8.88,8.88,0,0,1-3.31-2.21,9.48,9.48,0,0,1-2-3.44,13.57,13.57,0,0,1-.68-4.34,13.08,13.08,0,0,1,.71-4.39,9.32,9.32,0,0,1,2-3.39A8.74,8.74,0,0,1,202,18.42,11.9,11.9,0,0,1,206.34,17.67Zm6.15,10.67a9.41,9.41,0,0,0-.76-3.95,5.48,5.48,0,0,0-2.16-2.52,6.42,6.42,0,0,0-5.62-.39,5.28,5.28,0,0,0-1.89,1.38,6.67,6.67,0,0,0-1.26,2.32,10.31,10.31,0,0,0-.45,3.16,10.55,10.55,0,0,0,.45,3.19,6.42,6.42,0,0,0,1.3,2.37A5.43,5.43,0,0,0,204,35.31a6.2,6.2,0,0,0,5.43-.34,5.66,5.66,0,0,0,2.22-2.49A9.48,9.48,0,0,0,212.49,28.34Z" transform="translate(-2.35 -1.52)"/><path class="cls-1" d="M226.38,29.89h-1.52v6.66a2.7,2.7,0,0,1-.59,1.94,2,2,0,0,1-1.56.62,2,2,0,0,1-1.6-.65,2.81,2.81,0,0,1-.57-1.91V20.6a2.66,2.66,0,0,1,.63-2,2.84,2.84,0,0,1,2-.6h7a22,22,0,0,1,2.49.12,6.66,6.66,0,0,1,1.87.48,5.44,5.44,0,0,1,1.77,1.18,5,5,0,0,1,1.17,1.77,5.74,5.74,0,0,1,.4,2.15,5.07,5.07,0,0,1-1.34,3.7,7.81,7.81,0,0,1-4.09,2,7.77,7.77,0,0,1,2.2,1.75,17.81,17.81,0,0,1,1.87,2.47A17.25,17.25,0,0,1,237.84,36a4.48,4.48,0,0,1,.46,1.45,1.43,1.43,0,0,1-.27.81,1.9,1.9,0,0,1-.73.64,2.32,2.32,0,0,1-1.08.23,2.16,2.16,0,0,1-1.22-.33,3.09,3.09,0,0,1-.85-.84c-.24-.34-.56-.84-1-1.5l-1.73-2.8a16.1,16.1,0,0,0-1.67-2.35,4.24,4.24,0,0,0-1.49-1.1A5.24,5.24,0,0,0,226.38,29.89Zm2.47-8.71h-4v5.7h3.88a11.4,11.4,0,0,0,2.62-.26,3.1,3.1,0,0,0,1.62-.89,2.5,2.5,0,0,0,.56-1.74,2.64,2.64,0,0,0-.45-1.52,2.79,2.79,0,0,0-1.25-1A9.23,9.23,0,0,0,228.85,21.18Z" transform="translate(-2.35 -1.52)"/><path class="cls-1" d="M250.3,30.68h-4v5.87a2.67,2.67,0,0,1-.61,1.91,2,2,0,0,1-1.54.65,2.06,2.06,0,0,1-1.58-.64,2.68,2.68,0,0,1-.59-1.89v-16a2.57,2.57,0,0,1,.65-2,3,3,0,0,1,2.08-.59h5.55a15.34,15.34,0,0,1,3.79.36,5.75,5.75,0,0,1,2.26,1.18,5.22,5.22,0,0,1,1.45,2,6.87,6.87,0,0,1,.49,2.67,5.83,5.83,0,0,1-2,4.8C255,30.14,253,30.68,250.3,30.68Zm-1.05-9.5h-2.91v6.34h2.91a9.28,9.28,0,0,0,2.56-.31,3,3,0,0,0,1.56-1,3,3,0,0,0,.54-1.86,3.07,3.07,0,0,0-.83-2.23C252.46,21.49,251.18,21.18,249.25,21.18Z" transform="translate(-2.35 -1.52)"/><path class="cls-2" d="M16.24,28a7.77,7.77,0,0,1,.19,11.43L7.58,48a5.86,5.86,0,0,0,.14,8.67h0A6.9,6.9,0,0,0,17,56.52L35.82,38.37c.1-.1.21-.19.33-.29l.33-.29h0a5.93,5.93,0,0,0-.15-8.73h0c-.11-.1-.22-.2-.34-.29s-.23-.18-.33-.28L16.26,10.93A6.93,6.93,0,0,0,7,11.08H7a5.86,5.86,0,0,0,.15,8.67Z" transform="translate(-2.35 -1.52)"/><path class="cls-1" d="M6.63,31.57A3,3,0,0,1,6.7,36L3.29,39.26a2.26,2.26,0,0,0,0,3.34h0a2.67,2.67,0,0,0,3.58-.05l7.24-7,.13-.11.13-.12h0A2.28,2.28,0,0,0,14.36,32h0l-.13-.11-.13-.1L6.63,25a2.67,2.67,0,0,0-3.57.06h0a2.26,2.26,0,0,0,0,3.34Z" transform="translate(-2.35 -1.52)"/><path class="cls-3" d="M26.87,20.54,23.26,23.1l-.34.29-.33.29a6,6,0,0,0,0,8.78l.33.3.34.28c3.15,3,5.77,5.89,8.92,8.84l2.6-2.51" transform="translate(-2.35 -1.52)"/><path class="cls-2" d="M55.87,30.3a3,3,0,0,1-.1-4.39l3.39-3.31a2.27,2.27,0,0,0-.07-3.34h0a2.67,2.67,0,0,0-3.58.07l-7.2,7a.69.69,0,0,1-.13.11l-.12.12h0a2.22,2.22,0,0,0-.7,1.69A2.31,2.31,0,0,0,48.13,30h0l.13.11.13.1,7.51,6.72a2.67,2.67,0,0,0,3.58-.07h0a2.26,2.26,0,0,0-.08-3.34Z" transform="translate(-2.35 -1.52)"/><path class="cls-1" d="M45.6,32a7.82,7.82,0,0,1,0-11.5l9-8.46a5.91,5.91,0,0,0,0-8.73h0a7,7,0,0,0-9.35,0l-19.23,18-.34.29-.33.29h0a6,6,0,0,0,0,8.78h0c.11.11.22.2.33.3l.34.28,19.23,18a7,7,0,0,0,9.35,0h0a5.91,5.91,0,0,0,0-8.73Z" transform="translate(-2.35 -1.52)"/><path class="cls-4" d="M51.84,51" transform="translate(-2.35 -1.52)"/></svg>