<svg id="Layer_1" data-name="Layer 1" xmlns="http://www.w3.org/2000/svg" viewBox="0 0 198.68 21.92"><title>XENTO TEXT BLACK 206X60</title><path d="M2.82,34.53l4.87-6.85L3.61,21.57A12.15,12.15,0,0,1,2.75,20a2.9,2.9,0,0,1-.3-1.23A1.45,1.45,0,0,1,3,17.72a2,2,0,0,1,1.36-.49,2,2,0,0,1,1.43.53,13,13,0,0,1,1.42,2l3.26,5.09L14,19.72c.28-.44.54-.81.73-1.11a5.51,5.51,0,0,1,.59-.76,1.77,1.77,0,0,1,.63-.46,2.05,2.05,0,0,1,.81-.16,1.91,1.91,0,0,1,1.35.49,1.49,1.49,0,0,1,.53,1.14,5.2,5.2,0,0,1-1.14,2.63l-4.31,6.19,4.62,6.91a10.83,10.83,0,0,1,.9,1.5A2.66,2.66,0,0,1,19,37.22a1.75,1.75,0,0,1-1,1.58,2.23,2.23,0,0,1-1,.25,2.17,2.17,0,0,1-1-.25,2.34,2.34,0,0,1-.7-.63l-1-1.46-3.82-5.84-4.08,6-.68,1a2.94,2.94,0,0,1-.49.56,2,2,0,0,1-.66.44,2.57,2.57,0,0,1-.91.16,1.93,1.93,0,0,1-1.32-.47,1.76,1.76,0,0,1-.53-1.39A4.83,4.83,0,0,1,2.82,34.53Z" transform="translate(-1.74 -17.13)"/><path d="M36.29,20.83H26.36V26h9.17a2.18,2.18,0,0,1,1.5.44,1.44,1.44,0,0,1,.5,1.16A1.49,1.49,0,0,1,37,28.78a2.12,2.12,0,0,1-1.51.45H26.36v6H36.63a2.3,2.3,0,0,1,1.56.47A1.59,1.59,0,0,1,38.71,37a1.56,1.56,0,0,1-.47,1.21,2.34,2.34,0,0,1-1.57.47h-12a2.9,2.9,0,0,1-2-.62A2.75,2.75,0,0,1,22,36V20.15a3.39,3.39,0,0,1,.29-1.51,1.75,1.75,0,0,1,.87-.85,3.73,3.73,0,0,1,1.51-.29H36.29a2.35,2.35,0,0,1,1.56.45,1.65,1.65,0,0,1,0,2.34l0,.05A2.31,2.31,0,0,1,36.29,20.83Z" transform="translate(-1.74 -17.13)"/><path d="M48,19.73l8.47,12.44V19.62A2.73,2.73,0,0,1,57,17.77a1.88,1.88,0,0,1,1.46-.61,1.94,1.94,0,0,1,1.49.61,2.69,2.69,0,0,1,.55,1.85v16.6c0,1.85-.78,2.78-2.37,2.78a3.26,3.26,0,0,1-1-.17,2.65,2.65,0,0,1-.88-.53,5.56,5.56,0,0,1-.78-.83l-.7-1L46.38,24.18V36.55a2.58,2.58,0,0,1-.58,1.83,2,2,0,0,1-1.49.62,1.92,1.92,0,0,1-1.49-.63,2.59,2.59,0,0,1-.56-1.82V20.26a4.25,4.25,0,0,1,.23-1.62,2.27,2.27,0,0,1,.94-1,2.58,2.58,0,0,1,1.4-.42,2.38,2.38,0,0,1,1,.2,2.52,2.52,0,0,1,.75.5,6.51,6.51,0,0,1,.65.82Z" transform="translate(-1.74 -17.13)"/><path d="M79.4,21.05H74.6V36.39a2.73,2.73,0,0,1-.61,2,2.08,2.08,0,0,1-1.57.65,2.14,2.14,0,0,1-1.6-.65,2.77,2.77,0,0,1-.61-2V21.05H65.4a2.45,2.45,0,0,1-1.71-.5,1.64,1.64,0,0,1-.55-1.27,1.61,1.61,0,0,1,.57-1.3,2.5,2.5,0,0,1,1.65-.47h14a2.48,2.48,0,0,1,1.69.49,1.73,1.73,0,0,1,0,2.55A2.54,2.54,0,0,1,79.4,21.05Z" transform="translate(-1.74 -17.13)"/><path d="M93.43,17.16a12,12,0,0,1,5.8,1.36,8.62,8.62,0,0,1,3.67,3.79,12.48,12.48,0,0,1,1.25,5.76,14.37,14.37,0,0,1-.68,4.46,9.64,9.64,0,0,1-2,3.46,8.85,8.85,0,0,1-3.35,2.25,13.59,13.59,0,0,1-9.16,0A8.81,8.81,0,0,1,85.56,36a9.43,9.43,0,0,1-2-3.5,13.31,13.31,0,0,1-.69-4.42,13.32,13.32,0,0,1,.71-4.47,9.37,9.37,0,0,1,2-3.45A8.69,8.69,0,0,1,88.9,18,12.07,12.07,0,0,1,93.43,17.16ZM99.68,28a9.88,9.88,0,0,0-.76-4,5.7,5.7,0,0,0-2.21-2.57,6.22,6.22,0,0,0-3.28-.89A6.44,6.44,0,0,0,91,21a5.44,5.44,0,0,0-1.92,1.41,6.68,6.68,0,0,0-1.27,2.36A10.05,10.05,0,0,0,87.32,28a10.27,10.27,0,0,0,.47,3.25,6.53,6.53,0,0,0,1.36,2.42,5.45,5.45,0,0,0,1.95,1.44,6.33,6.33,0,0,0,5.53-.35,5.66,5.66,0,0,0,2.25-2.54A9.36,9.36,0,0,0,99.68,28Z" transform="translate(-1.74 -17.13)"/><path d="M134,32a5.49,5.49,0,0,1-.52,2.18,8,8,0,0,1-1.59,2.31,8.14,8.14,0,0,1-2.8,1.83,10.6,10.6,0,0,1-4,.71,14.34,14.34,0,0,1-3.13-.32,8.57,8.57,0,0,1-2.56-1,8.11,8.11,0,0,1-2.11-1.76,10.56,10.56,0,0,1-1.47-2.22,11.73,11.73,0,0,1-.92-2.63,14.11,14.11,0,0,1-.29-3,12.63,12.63,0,0,1,.76-4.56A9.47,9.47,0,0,1,121,17.89a11.13,11.13,0,0,1,4.07-.76,10.5,10.5,0,0,1,4.71,1,8.45,8.45,0,0,1,3.16,2.53A4.86,4.86,0,0,1,134,23.61a1.81,1.81,0,0,1-.54,1.3,1.71,1.71,0,0,1-1.28.56A1.79,1.79,0,0,1,130.9,25a5.48,5.48,0,0,1-.94-1.34,6.58,6.58,0,0,0-2-2.35,5.12,5.12,0,0,0-2.88-.78,5.26,5.26,0,0,0-4.33,2,8.79,8.79,0,0,0-1.61,5.68,10.19,10.19,0,0,0,.71,4.08,5.1,5.1,0,0,0,2,2.43,5.57,5.57,0,0,0,3,.81A5.15,5.15,0,0,0,130.1,32a4.56,4.56,0,0,1,.7-1.37,1.58,1.58,0,0,1,1.33-.51,1.92,1.92,0,0,1,1.35.52A1.83,1.83,0,0,1,134,32Z" transform="translate(-1.74 -17.13)"/><path d="M147.54,17.16a11.9,11.9,0,0,1,5.76,1.36A8.69,8.69,0,0,1,157,22.31a12.59,12.59,0,0,1,1.24,5.76,13.8,13.8,0,0,1-.68,4.46,9.64,9.64,0,0,1-2,3.46,8.78,8.78,0,0,1-3.35,2.25,13.59,13.59,0,0,1-9.16,0A8.93,8.93,0,0,1,139.62,36a9.57,9.57,0,0,1-2-3.5,13.84,13.84,0,0,1-.69-4.42,13.33,13.33,0,0,1,.72-4.47,9.51,9.51,0,0,1,2-3.45,8.73,8.73,0,0,1,3.47-2.22A12.11,12.11,0,0,1,147.54,17.16ZM153.8,28a9.57,9.57,0,0,0-.77-4,5.57,5.57,0,0,0-2.2-2.57,6.56,6.56,0,0,0-5.73-.4,5.44,5.44,0,0,0-1.92,1.41,6.7,6.7,0,0,0-1.28,2.36,10.33,10.33,0,0,0-.46,3.22,10.56,10.56,0,0,0,.46,3.25,6.39,6.39,0,0,0,1.32,2.41,5.66,5.66,0,0,0,1.94,1.44,6.33,6.33,0,0,0,5.53-.35A5.8,5.8,0,0,0,153,32.24,9.68,9.68,0,0,0,153.8,28Z" transform="translate(-1.74 -17.13)"/><path d="M168,29.61H166.4v6.78a2.75,2.75,0,0,1-.6,2,2.31,2.31,0,0,1-3.22,0,2.81,2.81,0,0,1-.58-1.94V20.15a2.7,2.7,0,0,1,.64-2,2.88,2.88,0,0,1,2-.61h7.12a21.49,21.49,0,0,1,2.54.12,6.82,6.82,0,0,1,1.9.49,5.66,5.66,0,0,1,1.81,1.2,5.19,5.19,0,0,1,1.19,1.8,6.08,6.08,0,0,1,.41,2.19,5.19,5.19,0,0,1-1.37,3.77,7.9,7.9,0,0,1-4.16,2,8,8,0,0,1,2.24,1.78,18.59,18.59,0,0,1,1.9,2.51,17,17,0,0,1,1.35,2.43,4.51,4.51,0,0,1,.47,1.47,1.44,1.44,0,0,1-.27.83,1.93,1.93,0,0,1-.74.65A2.35,2.35,0,0,1,178,39a2.28,2.28,0,0,1-1.25-.34,3.2,3.2,0,0,1-.86-.86c-.25-.34-.57-.85-1-1.52l-1.76-2.85a17.62,17.62,0,0,0-1.7-2.4,4.42,4.42,0,0,0-1.52-1.12A5.4,5.4,0,0,0,168,29.61Zm2.51-8.87h-4.07v5.8h4a11.46,11.46,0,0,0,2.67-.26,3.22,3.22,0,0,0,1.65-.91,2.58,2.58,0,0,0,.57-1.77,2.68,2.68,0,0,0-.46-1.55,2.85,2.85,0,0,0-1.28-1A9.36,9.36,0,0,0,170.46,20.74Z" transform="translate(-1.74 -17.13)"/><path d="M192.3,30.41h-4.07v6a2.73,2.73,0,0,1-.62,1.94A2.08,2.08,0,0,1,186,39a2.14,2.14,0,0,1-1.61-.66,2.73,2.73,0,0,1-.6-1.92V20.13a2.61,2.61,0,0,1,.66-2,3,3,0,0,1,2.12-.6h5.65a15.15,15.15,0,0,1,3.86.37,5.71,5.71,0,0,1,2.3,1.2,5.31,5.31,0,0,1,1.48,2,7.25,7.25,0,0,1,.5,2.72,6,6,0,0,1-2,4.89C197.09,29.86,195.05,30.41,192.3,30.41Zm-1.07-9.67h-3v6.45h3a9.57,9.57,0,0,0,2.61-.31,3.11,3.11,0,0,0,1.59-1A3,3,0,0,0,196,24a3.17,3.17,0,0,0-.85-2.28C194.5,21.05,193.2,20.74,191.23,20.74Z" transform="translate(-1.74 -17.13)"/></svg>