<svg id="Layer_1" data-name="Layer 1" xmlns="http://www.w3.org/2000/svg" viewBox="0 0 59.19 58.2"><defs><style>.cls-1{fill:#7bb50b;}.cls-2{fill:#49820d;}.cls-3{fill:#2b5103;}.cls-3,.cls-4{opacity:0.77;}.cls-4{fill:#2e3564;}</style></defs><title>XENTO 60X60</title><path class="cls-1" d="M15.09,28.25a8,8,0,0,1,.2,11.7L6.22,48.69a6,6,0,0,0,.15,8.88h0a7.08,7.08,0,0,0,9.5-.14L35.13,38.85l.33-.3a3.17,3.17,0,0,0,.34-.3h0a6.07,6.07,0,0,0-.14-8.93h0L35.31,29,35,28.74l-19.85-18a7.08,7.08,0,0,0-9.5.14h0a6,6,0,0,0,.14,8.89Z" transform="translate(-0.87 -1.13)"/><path class="cls-2" d="M5.25,31.89a3.07,3.07,0,0,1,.08,4.51L1.84,39.76a2.32,2.32,0,0,0,0,3.42h0a2.72,2.72,0,0,0,3.66-.06L13,36l.13-.11.13-.12h0A2.33,2.33,0,0,0,14,34a2.37,2.37,0,0,0-.78-1.71h0L13,32.19l-.14-.11L5.26,25.16a2.72,2.72,0,0,0-3.66.06h0a2.31,2.31,0,0,0,.06,3.42Z" transform="translate(-0.87 -1.13)"/><path class="cls-3" d="M26,20.6l-3.69,2.62-.35.29-.34.3a6.09,6.09,0,0,0,0,9,3.17,3.17,0,0,0,.34.3c.12.1.24.19.35.3,3.22,3,5.9,6,9.13,9l2.66-2.56" transform="translate(-0.87 -1.13)"/><path class="cls-1" d="M55.65,30.59a3.06,3.06,0,0,1-.1-4.5L59,22.71a2.31,2.31,0,0,0-.08-3.42h0a2.72,2.72,0,0,0-3.65.07l-7.38,7.2-.13.11-.13.12h0a2.35,2.35,0,0,0,.08,3.44h0l.14.11.13.11,7.68,6.88a2.73,2.73,0,0,0,3.66-.08h0a2.32,2.32,0,0,0-.07-3.42Z" transform="translate(-0.87 -1.13)"/><path class="cls-2" d="M45.14,32.34a8,8,0,0,1,0-11.77l9.26-8.66A6.05,6.05,0,0,0,54.4,3h0a7.13,7.13,0,0,0-9.57,0L25.15,21.37l-.34.29-.35.3h0a6.11,6.11,0,0,0,0,9h0c.12.1.23.21.35.3s.23.19.34.3L44.83,49.94a7.13,7.13,0,0,0,9.57,0h0a6.05,6.05,0,0,0,0-8.94Z" transform="translate(-0.87 -1.13)"/><path class="cls-4" d="M51.52,51.79" transform="translate(-0.87 -1.13)"/></svg>